<?xml version="1.0" standalone="no"?>
<!DOCTYPE svg PUBLIC "-//W3C//DTD SVG 20010904//EN"
 "http://www.w3.org/TR/2001/REC-SVG-20010904/DTD/svg10.dtd">
<svg version="1.0" xmlns="http://www.w3.org/2000/svg"
 width="1280.000000pt" height="1036.000000pt" viewBox="0 0 1280.000000 1036.000000"
 preserveAspectRatio="xMidYMid meet">
<metadata>
Created by potrace 1.15, written by Peter Selinger 2001-2017
</metadata>
<g transform="translate(0.000000,1036.000000) scale(0.100000,-0.100000)"
fill="#000000" stroke="none">
<path d="M1863 10306 c-90 -101 -165 -250 -217 -428 -39 -135 -76 -323 -87
-442 -6 -59 -15 -119 -20 -133 -5 -14 -53 -66 -106 -116 -300 -283 -467 -449
-492 -490 -16 -24 -51 -90 -79 -145 -31 -62 -91 -154 -158 -242 -60 -79 -124
-164 -143 -189 -19 -25 -76 -98 -126 -161 -174 -217 -288 -414 -358 -615 -54
-156 -70 -250 -71 -415 -1 -144 -1 -146 31 -210 38 -77 89 -140 146 -179 111
-75 282 -109 452 -90 133 14 205 39 310 105 191 120 433 221 560 235 116 13
171 27 250 65 130 62 236 167 305 303 30 59 33 61 70 61 44 0 63 -20 157 -160
222 -332 444 -833 636 -1435 68 -212 245 -882 250 -944 3 -43 -413 -785 -583
-1041 -20 -30 -58 -89 -85 -130 -187 -289 -467 -658 -768 -1011 l-118 -138
-107 66 c-59 36 -212 136 -341 222 -129 86 -246 164 -260 173 l-26 17 -96
-167 c-104 -180 -223 -404 -233 -439 -6 -18 12 -34 146 -125 677 -462 1478
-913 2183 -1231 1334 -601 2683 -901 3930 -873 986 21 1831 200 2708 573 541
229 1042 518 1532 883 108 81 125 94 340 273 110 92 346 319 447 429 l70 78
-138 157 c-187 214 -240 275 -311 364 l-62 76 -123 -122 c-214 -211 -538 -495
-563 -495 -14 0 -163 226 -230 350 -268 493 -467 993 -589 1477 -29 115 -32
172 -11 258 23 100 71 181 170 285 147 156 226 249 297 350 267 384 384 795
349 1220 -15 171 -24 222 -73 395 -63 222 -175 470 -283 627 -30 44 -55 83
-55 88 0 13 148 80 270 121 200 67 392 86 542 54 300 -63 482 -345 560 -866
19 -127 21 -177 17 -424 -8 -674 -2 -864 37 -1135 46 -319 147 -628 257 -789
107 -157 270 -271 436 -307 80 -17 231 -18 320 -3 36 6 67 12 69 14 1 1 -8 22
-21 46 -35 65 -93 248 -121 379 -73 341 -61 693 39 1135 64 285 75 376 75 642
0 285 -34 522 -115 802 -55 189 -93 286 -193 481 -292 572 -590 850 -1002 935
-108 23 -301 23 -430 1 -329 -57 -778 -315 -1090 -627 l-50 -50 -59 40 c-119
81 -284 153 -446 195 -215 55 -523 67 -730 29 -326 -61 -542 -146 -915 -363
-260 -151 -428 -231 -676 -323 -690 -254 -1428 -246 -1912 22 -163 90 -291
199 -395 336 -99 130 -201 247 -345 396 -417 431 -930 771 -1482 982 -129 50
-413 137 -445 137 -9 0 -14 52 -18 198 -7 237 -30 386 -88 557 -23 66 -59 151
-81 188 -47 81 -145 189 -203 223 -42 24 -148 64 -171 64 -7 0 -34 -24 -61
-54z m6385 -6026 c74 -33 300 -266 462 -477 187 -242 459 -630 667 -948 329
-506 436 -682 636 -1046 28 -51 34 -69 24 -77 -64 -51 -522 -294 -732 -388
-272 -121 -679 -268 -870 -312 -22 -6 -101 -26 -175 -45 -364 -95 -826 -159
-1283 -177 -1358 -54 -2851 293 -4344 1010 l-162 78 55 104 c31 56 88 148 126
203 71 99 108 147 380 489 79 99 172 216 208 262 78 99 279 346 405 499 50 61
185 225 299 367 l208 256 96 -40 c464 -193 934 -298 1517 -339 467 -32 1023
55 1555 244 166 59 445 193 552 265 85 57 132 82 173 93 47 13 151 2 203 -21z"/>
</g>
</svg>
